<svg xmlns="http://www.w3.org/2000/svg" width="113.748" height="67.134" viewBox="0 0 113.748 67.134">
  <path id="パス_3" data-name="パス 3" d="M239.471,364.946c1.487-1.936,3.295-4.172.536-6.223-2.725-2.025-4.493.372-5.928,2.242-3.244,4.227-6.281,8.611-9.43,12.907-5.391,7.362-12.018,11.969-21.8,11.128a57.428,57.428,0,0,0-31.89,5.942c-7.068,3.649-13.981,2.619-20.617-1.366-5.3-3.185-10.554-6.464-15.922-9.539-2.008-1.148-4.622-2.868-6.259.212-1.529,2.883.993,4.286,3.1,5.534,7.1,4.207,14.151,8.514,21.357,12.525a9.2,9.2,0,0,1,5.191,7.624c.633,5.153,1.272,10.23-.085,15.183-.029,1.76,0,3.512,1.965,3.825,2.229.361,2.963-1.2,3.1-3.16a13.526,13.526,0,0,1,.287-2.04c2.3-10.12,8.319-12.456,17.019-6.713,4.36,2.879,7.755,6.8,11.473,10.363,2.587,2.486,4.332,2.306,5.837-.984s3.073-6.54,4.721-9.753c6.629-12.914,12.9-13.507,21.6-2.034.992,1.308,1.866,2.692,3.7,1.721,2.191-1.154,1.223-2.828.5-4.433-1.548-3.442-2.959-6.957-4.6-10.357-2.743-5.683-1.461-10.449,2.506-15.137C230.6,376.787,234.971,370.806,239.471,364.946Zm-36.817,31.04c-2.45,6.768-5,13.5-7.367,20.295-.834,2.4-1.557,3.33-3.618.97-4.96-5.68-10.014-11.282-15.049-16.895-1.543-1.721-2.431-3.824-.532-5.455,3.974-3.417,8.078-6.81,13.977-6.106,2.718.324,5.507.063,8.223.418,2.417.317,4.781,1.107,4.9,4.528A17.628,17.628,0,0,1,202.654,395.986Z" transform="translate(-127.694 -357.952)" fill="#e6fab2"/>
</svg>
