<svg xmlns="http://www.w3.org/2000/svg" width="137.253" height="34.253" viewBox="0 0 137.253 34.253">
  <g id="logo" transform="translate(-127.694 -356.616)">
    <g id="グループ_1" data-name="グループ 1" transform="translate(128.369 357.759)">
      <path id="パス_1" data-name="パス 1" d="M233.358,370.078a4.774,4.774,0,0,1-5-5.049,4.941,4.941,0,0,1,4.824-5.056q.127,0,.254,0a5.116,5.116,0,0,1,5.023,5.16A4.786,4.786,0,0,1,233.358,370.078Z" transform="translate(-194.729 -359.971)" fill="#b7b7b7"/>
      <path id="パス_2" data-name="パス 2" d="M164.861,383.891a5.068,5.068,0,0,1,10.118-.183q.006.225-.01.45a5.083,5.083,0,0,1-5.2,4.966h-.012a4.944,4.944,0,0,1-4.908-4.98C164.853,384.06,164.856,383.976,164.861,383.891Z" transform="translate(-152.865 -372.53)" fill="#b7b7b7"/>
      <g id="CookWith" transform="translate(59.578 9.566)" style="isolation: isolate">
        <text id="CookWith-2" data-name="CookWith" transform="translate(0 14)" fill="#b7b7b7" font-size="14" font-family="Monaco" letter-spacing="0.099em" style="isolation: isolate"><tspan x="0" y="0">CookWith</tspan></text>
      </g>
      <path id="パス_3" data-name="パス 3" d="M184.045,364.709c.723-.942,1.6-2.03.261-3.027-1.325-.985-2.186.181-2.883,1.09-1.578,2.056-3.055,4.188-4.587,6.278-2.622,3.581-5.846,5.822-10.6,5.413a27.934,27.934,0,0,0-15.512,2.89c-3.438,1.775-6.8,1.274-10.028-.665-2.58-1.549-5.134-3.144-7.745-4.64-.977-.558-2.248-1.4-3.044.1-.744,1.4.483,2.085,1.508,2.692,3.455,2.046,6.883,4.141,10.388,6.092a4.473,4.473,0,0,1,2.525,3.709,18.956,18.956,0,0,1-.041,7.385c-.014.856,0,1.708.956,1.86,1.084.176,1.441-.586,1.51-1.537a6.592,6.592,0,0,1,.139-.993c1.12-4.922,4.046-6.059,8.278-3.265a41.4,41.4,0,0,1,5.581,5.041c1.258,1.209,2.107,1.122,2.839-.479s1.495-3.181,2.3-4.743c3.224-6.281,6.276-6.57,10.507-.99.483.636.907,1.309,1.8.837,1.066-.561.595-1.376.244-2.156-.753-1.674-1.439-3.384-2.237-5.038-1.334-2.764-.711-5.083,1.219-7.363C179.731,370.468,181.855,367.559,184.045,364.709Zm-17.908,15.1c-1.192,3.292-2.432,6.566-3.584,9.871-.406,1.166-.757,1.62-1.76.472-2.413-2.763-4.871-5.488-7.32-8.218-.75-.837-1.182-1.86-.259-2.653,1.933-1.662,3.929-3.313,6.8-2.97,1.322.158,2.679.031,4,.2,1.176.154,2.325.538,2.386,2.2A8.656,8.656,0,0,1,166.136,379.807Z" transform="translate(-129.675 -360.852)" fill="#b7b7b7"/>
    </g>
    <g id="グループ_1-2" data-name="グループ 1" transform="translate(127.694 356.616)">
      <path id="パス_1-2" data-name="パス 1" d="M231.377,366.723a4.774,4.774,0,0,1-5-5.049,4.941,4.941,0,0,1,4.824-5.056q.127,0,.254,0a5.116,5.116,0,0,1,5.023,5.159A4.786,4.786,0,0,1,231.377,366.723Z" transform="translate(-192.748 -356.616)" fill="#e6fab2"/>
      <path id="パス_2-2" data-name="パス 2" d="M162.88,380.536A5.068,5.068,0,0,1,173,380.354q.006.225-.01.45a5.083,5.083,0,0,1-5.2,4.966h-.012a4.944,4.944,0,0,1-4.908-4.98C162.872,380.706,162.875,380.621,162.88,380.536Z" transform="translate(-150.884 -369.175)" fill="#e6fab2"/>
      <g id="CookWith-3" data-name="CookWith" transform="translate(59.579 9.566)" style="isolation: isolate">
        <text id="CookWith-4" data-name="CookWith" transform="translate(0 14)" fill="#636363" font-size="14" font-family="Monaco" letter-spacing="0.099em" style="isolation: isolate"><tspan x="0" y="0">CookWith</tspan></text>
      </g>
      <path id="パス_3-2" data-name="パス 3" d="M182.064,361.354c.723-.942,1.6-2.029.261-3.027-1.325-.985-2.186.181-2.883,1.091-1.578,2.056-3.055,4.188-4.587,6.278-2.622,3.581-5.846,5.822-10.6,5.413A27.934,27.934,0,0,0,148.739,374c-3.438,1.775-6.8,1.274-10.028-.665-2.58-1.549-5.134-3.144-7.745-4.64-.977-.558-2.248-1.4-3.044.1-.744,1.4.483,2.085,1.508,2.692,3.455,2.046,6.883,4.141,10.388,6.092a4.473,4.473,0,0,1,2.525,3.709,18.955,18.955,0,0,1-.041,7.385c-.014.856,0,1.708.956,1.861,1.084.176,1.441-.586,1.51-1.537a6.579,6.579,0,0,1,.139-.992c1.12-4.922,4.046-6.059,8.278-3.265a41.377,41.377,0,0,1,5.581,5.041c1.258,1.209,2.107,1.122,2.839-.479s1.495-3.181,2.3-4.744c3.224-6.281,6.276-6.57,10.507-.99.483.636.907,1.309,1.8.837,1.066-.561.595-1.376.244-2.156-.753-1.674-1.439-3.384-2.237-5.038-1.334-2.764-.711-5.083,1.219-7.363C177.75,367.114,179.874,364.2,182.064,361.354Zm-17.908,15.1c-1.192,3.292-2.432,6.566-3.584,9.872-.406,1.165-.757,1.62-1.76.472-2.413-2.763-4.871-5.488-7.32-8.218-.75-.837-1.182-1.86-.259-2.653,1.933-1.662,3.929-3.313,6.8-2.97,1.322.157,2.679.031,4,.2,1.176.154,2.325.538,2.386,2.2A8.572,8.572,0,0,1,164.155,376.452Z" transform="translate(-127.694 -357.497)" fill="#e6fab2"/>
    </g>
  </g>
</svg>
