<svg xmlns="http://www.w3.org/2000/svg" width="288.873" height="70.421" viewBox="0 0 288.873 70.421">
  <g id="logo" transform="translate(-127.694 -356.616)">
    <g id="グループ_1" data-name="グループ 1" transform="translate(129.082 358.966)">
      <path id="パス_1" data-name="パス 1" d="M238.64,380.75c-6.15-.032-10.3-4.218-10.281-10.381a10.158,10.158,0,0,1,9.917-10.4q.262-.006.522,0a10.518,10.518,0,0,1,10.326,10.607C249.162,376.571,244.819,380.784,238.64,380.75Z" transform="translate(-159.222 -359.971)" fill="#b7b7b7"/>
      <path id="パス_2" data-name="パス 2" d="M164.87,389.031c.129-6.011,4.506-10.113,10.676-10.006a9.881,9.881,0,0,1,10.125,9.63q.012.463-.02.926a10.449,10.449,0,0,1-10.684,10.21h-.025a10.164,10.164,0,0,1-10.09-10.237C164.854,389.379,164.861,389.206,164.87,389.031Z" transform="translate(-140.208 -365.675)" fill="#b7b7b7"/>
      <g id="CookWith" transform="translate(122.486 19.665)" style="isolation: isolate">
        <text id="CookWith-2" data-name="CookWith" transform="translate(0 30)" fill="#b7b7b7" font-size="30" font-family="Monaco" letter-spacing="0.099em" style="isolation: isolate"><tspan x="0" y="0">CookWith</tspan></text>
      </g>
      <path id="パス_3" data-name="パス 3" d="M241.452,368.3c1.487-1.936,3.295-4.173.536-6.223-2.725-2.025-4.493.372-5.928,2.242-3.244,4.227-6.281,8.611-9.43,12.907-5.391,7.362-12.018,11.97-21.8,11.129a57.428,57.428,0,0,0-31.89,5.942c-7.068,3.649-13.981,2.619-20.617-1.366-5.3-3.185-10.554-6.464-15.922-9.539-2.008-1.148-4.622-2.869-6.259.212-1.529,2.883.993,4.287,3.1,5.535,7.1,4.207,14.151,8.514,21.357,12.525a9.2,9.2,0,0,1,5.191,7.624c.633,5.153,1.272,10.23-.085,15.183-.029,1.759,0,3.512,1.965,3.824,2.229.361,2.963-1.2,3.1-3.16a13.542,13.542,0,0,1,.287-2.041c2.3-10.119,8.319-12.456,17.019-6.713,4.36,2.88,7.755,6.8,11.473,10.364,2.587,2.486,4.332,2.306,5.837-.985s3.073-6.54,4.721-9.752c6.629-12.914,12.9-13.507,21.6-2.035.992,1.308,1.866,2.692,3.7,1.721,2.191-1.154,1.223-2.828.5-4.433-1.548-3.442-2.959-6.957-4.6-10.357-2.743-5.683-1.461-10.45,2.506-15.137C232.584,380.141,236.952,374.16,241.452,368.3Zm-36.817,31.04c-2.45,6.768-5,13.5-7.367,20.294-.834,2.4-1.557,3.331-3.618.97-4.96-5.68-10.014-11.282-15.049-16.894-1.543-1.721-2.431-3.824-.532-5.455,3.974-3.417,8.078-6.81,13.977-6.107,2.718.324,5.507.063,8.223.419,2.417.317,4.781,1.106,4.905,4.527A17.789,17.789,0,0,1,204.635,399.341Z" transform="translate(-129.675 -360.371)" fill="#b7b7b7"/>
    </g>
    <g id="グループ_1-2" data-name="グループ 1" transform="translate(127.694 356.616)">
      <path id="パス_1-2" data-name="パス 1" d="M236.659,377.4c-6.15-.032-10.3-4.218-10.281-10.381a10.159,10.159,0,0,1,9.917-10.4q.262-.006.522,0a10.517,10.517,0,0,1,10.326,10.607C247.181,373.216,242.838,377.429,236.659,377.4Z" transform="translate(-157.241 -356.616)" fill="#e6fab2"/>
      <path id="パス_2-2" data-name="パス 2" d="M162.889,385.677c.129-6.012,4.506-10.114,10.676-10.006A9.881,9.881,0,0,1,183.69,385.3q.012.463-.02.926a10.449,10.449,0,0,1-10.684,10.209h-.025a10.165,10.165,0,0,1-10.09-10.237C162.873,386.025,162.88,385.851,162.889,385.677Z" transform="translate(-138.227 -362.321)" fill="#e6fab2"/>
      <g id="CookWith-3" data-name="CookWith" transform="translate(122.486 19.666)" style="isolation: isolate">
        <text id="CookWith-4" data-name="CookWith" transform="translate(0 30)" fill="#636363" font-size="30" font-family="Monaco" letter-spacing="0.099em" style="isolation: isolate"><tspan x="0" y="0">CookWith</tspan></text>
      </g>
      <path id="パス_3-2" data-name="パス 3" d="M239.471,364.946c1.487-1.936,3.295-4.172.536-6.223-2.725-2.025-4.493.372-5.928,2.242-3.244,4.227-6.281,8.611-9.43,12.907-5.391,7.362-12.018,11.969-21.8,11.128a57.428,57.428,0,0,0-31.89,5.942c-7.068,3.649-13.981,2.619-20.617-1.366-5.3-3.185-10.554-6.464-15.922-9.539-2.008-1.148-4.622-2.868-6.259.212-1.529,2.883.993,4.286,3.1,5.534,7.1,4.207,14.151,8.514,21.357,12.525a9.2,9.2,0,0,1,5.191,7.624c.633,5.153,1.272,10.23-.085,15.183-.029,1.76,0,3.512,1.965,3.825,2.229.361,2.963-1.2,3.1-3.16a13.526,13.526,0,0,1,.287-2.04c2.3-10.12,8.319-12.456,17.019-6.713,4.36,2.879,7.755,6.8,11.473,10.363,2.587,2.486,4.332,2.306,5.837-.984s3.073-6.54,4.721-9.753c6.629-12.914,12.9-13.507,21.6-2.034.992,1.308,1.866,2.692,3.7,1.721,2.191-1.154,1.223-2.828.5-4.433-1.548-3.442-2.959-6.957-4.6-10.357-2.743-5.683-1.461-10.449,2.506-15.137C230.6,376.787,234.971,370.806,239.471,364.946Zm-36.817,31.04c-2.45,6.768-5,13.5-7.367,20.295-.834,2.4-1.557,3.33-3.618.97-4.96-5.68-10.014-11.282-15.049-16.895-1.543-1.721-2.431-3.824-.532-5.455,3.974-3.417,8.078-6.81,13.977-6.106,2.718.324,5.507.063,8.223.418,2.417.317,4.781,1.107,4.9,4.528A17.628,17.628,0,0,1,202.654,395.986Z" transform="translate(-127.694 -357.016)" fill="#e6fab2"/>
    </g>
  </g>
</svg>
